<svg width="219" height="69" viewBox="0 0 219 69" fill="none" xmlns="http://www.w3.org/2000/svg">
<g clip-path="url(#clip0_404_160)">
<path d="M39.622 64.0616C41.178 63.5179 42.2717 61.9905 42.2587 60.3401C42.2587 59.654 42.0829 59.0198 41.7769 58.4567C41.5165 57.9195 41.7313 57.2076 42.2131 56.8904C45.0907 54.897 46.8745 51.6868 46.8875 48.0106C46.8875 50.347 43.8602 51.2984 42.493 49.4409C41.7899 48.5283 42.0569 47.2598 42.1155 46.1919C42.2912 44.1078 42.9032 42.2115 43.6584 40.3151C44.8042 36.7749 44.1141 32.6262 41.8876 29.6619C42.7795 33.1245 39.6806 36.4059 36.1716 35.8817C30.8852 35.4222 27.5454 29.7461 29.6743 24.9631C29.8631 24.5036 30.117 24.0829 30.3839 23.6687C32.6299 20.206 32.9685 15.3196 31.2172 11.5463C30.6313 10.2324 29.8305 9.04153 28.8605 7.99303C26.979 5.92841 25.9504 2.92531 26.2889 -0.0065918C24.4335 2.9965 24.2447 7.2552 25.8332 10.4136C26.2238 11.1385 26.5298 11.9022 26.6926 12.7177C27.1873 14.9506 26.6209 17.4618 25.3059 19.2288C22.1223 23.7981 14.948 20.8727 15.9831 15.3519C14.349 17.5525 13.9649 20.8468 15.0977 23.4227C15.3126 23.947 15.6576 24.4259 15.8724 24.9566C16.6146 26.5747 16.9597 28.5163 16.7709 30.3609C16.7188 30.9564 16.6146 31.5389 16.4584 32.1084C16.4453 32.1602 16.4258 32.2184 16.4128 32.2767C16.3998 32.2767 16.3868 32.2832 16.3737 32.2896C14.4857 36.2118 8.60694 35.5192 7.74758 31.1958C7.12259 27.8756 4.46639 25.2414 1.11359 24.633C3.35313 25.9857 4.5966 28.9435 3.86744 31.5647C3.34662 33.6423 3.06017 35.817 3.06668 38.0563C3.06668 38.8395 3.09923 39.6032 3.17084 40.3734C3.35964 42.548 3.80885 44.645 4.49243 46.632C4.95466 47.5964 4.98071 48.8261 4.19947 49.6157C3.37266 50.5477 1.82972 50.6577 0.879216 49.8487C0.644845 49.648 0.443026 49.415 0.299799 49.1432C0.241207 49.0397 0.189124 48.9296 0.156573 48.8261C0.0589183 48.5672 0.0133462 48.3018 0.00683594 48.0106C0.00683594 51.6997 1.86878 54.9552 4.70727 56.9034C5.19555 57.2464 5.37132 57.9972 5.06534 58.5214C3.94557 60.5537 5.06534 63.3044 7.21374 64.0357C9.66161 60.9032 14.7982 62.0876 15.6055 65.9838C15.6055 65.9903 15.6055 65.9968 15.6055 66.0033C15.7618 67.0129 16.5039 67.8414 17.4805 68.152H17.4935C18.2357 66.3916 20.8789 66.987 20.7812 68.8963C21.0677 68.9352 21.3541 68.9675 21.6471 68.9869C21.4973 66.4822 25.1952 66.4757 25.0455 68.9869C25.4361 68.9546 25.8267 68.9093 26.2108 68.851C26.1457 67.0194 28.6847 66.4175 29.4659 68.0744C29.4659 68.0744 29.4659 68.0744 29.4725 68.0744C30.2537 67.809 30.8591 67.1877 31.1 66.411C31.2953 65.7703 31.4255 65.0907 31.7901 64.5405C33.4242 61.7251 37.6429 61.4468 39.622 64.0551V64.0616ZM5.74892 57.5765C5.74892 57.5765 5.7359 57.5571 5.7359 57.5441C5.74892 57.5441 5.75543 57.5506 5.76845 57.5571C5.76845 57.5571 5.75543 57.57 5.74892 57.5765V57.5765ZM15.1042 56.3144C7.22025 56.3144 11.0939 47.6417 6.38042 47.6417C7.48066 46.8521 10.6121 46.9427 12.3699 49.0008C14.1277 51.059 22.1939 56.2303 22.1939 51.8486C22.1939 51.8486 22.9882 56.3144 15.1042 56.3144V56.3144ZM24.4205 62.5859C24.4205 62.5859 24.1015 60.8449 23.3332 60.8449C22.565 60.8449 22.246 62.5859 22.246 62.5859C22.246 62.5859 20.664 62.4953 20.664 60.586C20.664 58.6767 22.4869 56.0426 22.4869 56.0426C22.5585 56.5344 22.8905 56.7933 23.3332 56.7933C23.7759 56.7933 24.1015 56.5344 24.1731 56.0426C24.1731 56.0426 25.996 58.6767 25.996 60.586C25.996 62.4953 24.414 62.5859 24.414 62.5859H24.4205ZM31.7771 56.3144C23.8931 56.3144 24.6809 51.8486 24.6809 51.8486C24.6809 56.2303 32.7406 51.059 34.5049 49.0008C36.2692 46.9427 39.3942 46.8521 40.4944 47.6417C35.7809 47.6417 39.6546 56.3144 31.7706 56.3144H31.7771Z" fill="#A93BFF"/>
<path d="M70.0702 45.3053V41.1178H82.3291L84.1585 36.4837H64.4648V57.1882H70.0702V49.4216H79.0479L80.6755 45.3053H70.0702Z" fill="#A93BFF"/>
<path d="M88.0777 36.4837L84.2691 46.425L83.1168 49.4216L80.1416 57.1882H85.9162L87.0816 53.9586H96.8991L98.0645 57.1882H103.839L95.903 36.4837H88.0711H88.0777ZM88.5724 49.7905L91.4956 41.7068H92.5112L95.4148 49.7905H88.5724Z" fill="#A93BFF"/>
<path d="M122.322 49.4993H121.827L113.071 36.4837H106.6V57.1882H112.055V44.1727H112.576L121.45 57.1882H127.771V36.4837H122.322V49.4993Z" fill="#A93BFF"/>
<path d="M131.273 57.1882H136.879V49.4216H148.552V45.3053H136.879V41.1178H149.196V36.4837H131.273V57.1882Z" fill="#A93BFF"/>
<path d="M167.444 48.289C167.444 51.3438 165.908 53.1949 162.737 53.1949C159.567 53.1949 158.076 51.3438 158.076 48.289V36.4837H152.451V48.4378C152.451 54.8712 156.071 57.8808 162.737 57.8808C169.404 57.8808 173.024 54.8777 173.024 48.4184V36.4902H167.444V48.2954V48.289Z" fill="#A93BFF"/>
<path d="M196.506 44.0497C196.506 39.0208 193.434 36.4837 187.802 36.4837H176.526V57.1882H182.132V51.2985H188.356L191.552 57.1882H197.079L193.141 50.1659C195.146 48.9815 196.513 46.9104 196.513 44.0562L196.506 44.0497ZM187.457 47.0787H182.125V41.1113H187.457C189.71 41.1113 190.927 42.1469 190.927 44.095C190.927 46.0431 189.71 47.0787 187.457 47.0787Z" fill="#A93BFF"/>
<path d="M213.101 36.4837L207.893 45.26H207.372L202.19 36.4837H196.266L204.846 50.606V57.1882H210.419V50.6319L219 36.4837H213.101Z" fill="#A93BFF"/>
</g>
<defs>
<clipPath id="clip0_404_160">
<rect width="219" height="69" fill="white"/>
</clipPath>
</defs>
</svg>
